<svg xmlns="http://www.w3.org/2000/svg" viewBox="0 0 1800 1200" role="img" aria-labelledby="title desc">
  <title id="title">Soft skincare routine background</title>
  <desc id="desc">A soft tabletop composition with skincare bottles, serum droppers, cream jars, and botanical shadows.</desc>
  <defs>
    <linearGradient id="surface" x1="0" x2="1" y1="0" y2="1">
      <stop offset="0" stop-color="#f9fbf8"/>
      <stop offset="0.48" stop-color="#f3eee9"/>
      <stop offset="1" stop-color="#eef6f5"/>
    </linearGradient>
    <linearGradient id="glass" x1="0" x2="1" y1="0" y2="1">
      <stop offset="0" stop-color="#ffffff" stop-opacity="0.95"/>
      <stop offset="1" stop-color="#d8ece7" stop-opacity="0.82"/>
    </linearGradient>
    <linearGradient id="amber" x1="0" x2="1" y1="0" y2="1">
      <stop offset="0" stop-color="#f7d19b"/>
      <stop offset="1" stop-color="#b77a4f"/>
    </linearGradient>
    <filter id="softShadow" x="-35%" y="-35%" width="170%" height="170%">
      <feDropShadow dx="28" dy="36" stdDeviation="28" flood-color="#867970" flood-opacity="0.16"/>
    </filter>
    <filter id="blurred" x="-20%" y="-20%" width="140%" height="140%">
      <feGaussianBlur stdDeviation="18"/>
    </filter>
    <pattern id="grain" width="180" height="180" patternUnits="userSpaceOnUse">
      <circle cx="24" cy="36" r="1.2" fill="#8ea49d" opacity="0.12"/>
      <circle cx="94" cy="76" r="0.9" fill="#c49a7b" opacity="0.12"/>
      <circle cx="146" cy="122" r="1" fill="#7e8f8b" opacity="0.1"/>
      <circle cx="62" cy="148" r="0.8" fill="#a7b8b1" opacity="0.12"/>
    </pattern>
  </defs>
  <rect width="1800" height="1200" fill="url(#surface)"/>
  <rect width="1800" height="1200" fill="url(#grain)" opacity="0.5"/>
  <g opacity="0.55" filter="url(#blurred)">
    <ellipse cx="280" cy="1060" rx="420" ry="170" fill="#d7ede8"/>
    <ellipse cx="1490" cy="150" rx="360" ry="180" fill="#f4d3bd"/>
    <ellipse cx="1120" cy="980" rx="460" ry="210" fill="#e5efe5"/>
  </g>
  <g opacity="0.18" stroke="#5f7f75" stroke-width="16" stroke-linecap="round" fill="none">
    <path d="M160 790 C250 665 390 625 535 674"/>
    <path d="M312 704 C315 625 361 565 432 537"/>
    <path d="M418 667 C480 595 559 571 640 596"/>
    <path d="M1425 294 C1519 218 1631 209 1714 261"/>
    <path d="M1540 252 C1558 181 1613 136 1686 128"/>
  </g>
  <g filter="url(#softShadow)" opacity="0.88">
    <g transform="translate(1130 320) rotate(-9)">
      <rect x="0" y="130" width="150" height="380" rx="48" fill="url(#glass)"/>
      <rect x="44" y="70" width="62" height="92" rx="20" fill="#dfe8e3"/>
      <rect x="34" y="32" width="82" height="48" rx="18" fill="#313333"/>
      <rect x="28" y="258" width="94" height="114" rx="22" fill="#ffffff" opacity="0.64"/>
      <line x1="43" x2="108" y1="297" y2="297" stroke="#6f827c" stroke-width="6" opacity="0.34"/>
      <line x1="54" x2="98" y1="322" y2="322" stroke="#6f827c" stroke-width="4" opacity="0.24"/>
    </g>
    <g transform="translate(560 548) rotate(11)">
      <ellipse cx="155" cy="292" rx="150" ry="56" fill="#d5c4b7" opacity="0.18"/>
      <rect x="48" y="66" width="214" height="250" rx="52" fill="#f8eee6"/>
      <ellipse cx="155" cy="68" rx="106" ry="39" fill="#fff9f2"/>
      <ellipse cx="155" cy="315" rx="107" ry="34" fill="#ddc9bd"/>
      <rect x="90" y="120" width="130" height="96" rx="22" fill="#ffffff" opacity="0.55"/>
      <line x1="112" x2="198" y1="158" y2="158" stroke="#9b8375" stroke-width="6" opacity="0.32"/>
      <line x1="126" x2="184" y1="183" y2="183" stroke="#9b8375" stroke-width="4" opacity="0.24"/>
    </g>
    <g transform="translate(810 230) rotate(17)">
      <rect x="70" y="22" width="84" height="72" rx="20" fill="#2f3432"/>
      <rect x="93" y="88" width="38" height="124" rx="18" fill="#272b2a"/>
      <rect x="30" y="196" width="164" height="360" rx="54" fill="url(#amber)"/>
      <rect x="62" y="315" width="100" height="126" rx="24" fill="#fff7ec" opacity="0.42"/>
      <path d="M112 124 C136 177 136 229 112 281 C88 229 88 177 112 124Z" fill="#f9e4c5" opacity="0.62"/>
    </g>
    <g transform="translate(1260 690) rotate(-14)">
      <rect x="20" y="92" width="230" height="330" rx="58" fill="#eef5ef"/>
      <rect x="80" y="24" width="112" height="92" rx="28" fill="#383c39"/>
      <rect x="64" y="208" width="142" height="116" rx="26" fill="#ffffff" opacity="0.52"/>
      <line x1="95" x2="176" y1="249" y2="249" stroke="#6d7c74" stroke-width="6" opacity="0.3"/>
      <line x1="111" x2="161" y1="276" y2="276" stroke="#6d7c74" stroke-width="4" opacity="0.22"/>
    </g>
  </g>
  <g opacity="0.26" fill="none" stroke="#778f86" stroke-width="10" stroke-linecap="round">
    <path d="M246 388 C308 317 394 300 470 343"/>
    <path d="M330 352 C344 286 391 244 456 230"/>
    <path d="M1532 823 C1451 765 1353 768 1276 833"/>
    <path d="M1432 797 C1405 728 1347 692 1278 695"/>
  </g>
</svg>
